<svg xmlns="http://www.w3.org/2000/svg" version="1.1" xmlns:xlink="http://www.w3.org/1999/xlink" xmlns:svgjs="http://svgjs.dev/svgjs" viewBox="0 0 800 800"><defs><filter id="bbburst-blur-1" x="-100%" y="-100%" width="400%" height="400%"><feGaussianBlur in="SourceGraphic" stdDeviation="1"></feGaussianBlur></filter><filter id="bbburst-blur-2" x="-100%" y="-100%" width="400%" height="400%"><feGaussianBlur in="SourceGraphic" stdDeviation="2"></feGaussianBlur></filter><filter id="bbburst-blur-3" x="-100%" y="-100%" width="400%" height="400%"><feGaussianBlur in="SourceGraphic" stdDeviation="4"></feGaussianBlur></filter><filter id="bbburst-blur-4" x="-100%" y="-100%" width="400%" height="400%"><feGaussianBlur in="SourceGraphic" stdDeviation="12"></feGaussianBlur></filter><symbol id="bbburst-shape-1" viewBox="0 0 194 167"><path d="m97 0 96.129 166.5H.871L97 0Z"></path></symbol><symbol id="bbburst-shape-4" viewBox="0 0 149 143"><path d="M71.647 2.781c.898-2.764 4.808-2.764 5.706 0l15.445 47.534a3 3 0 0 0 2.853 2.073h49.98c2.906 0 4.115 3.719 1.764 5.427L106.96 87.193a2.999 2.999 0 0 0-1.09 3.354l15.445 47.534c.898 2.764-2.266 5.062-4.617 3.354l-40.435-29.378a3 3 0 0 0-3.526 0l-40.435 29.378c-2.351 1.708-5.515-.59-4.617-3.354L43.13 90.547a3 3 0 0 0-1.09-3.354L1.605 57.815c-2.35-1.708-1.142-5.427 1.764-5.427h49.98a3 3 0 0 0 2.853-2.073L71.647 2.781Z"></path></symbol><symbol id="bbburst-shape-6" viewBox="0 0 133 116"><path d="M59.7487 10.2513c-13.6683-13.66839-35.8291-13.66839-49.4974 0-13.66839 13.6683-13.66839 35.8291 0 49.4974l49.4974-49.4974ZM66.5 66.5 41.7513 91.2487 66.5 115.997l24.7487-24.7483L66.5 66.5Zm56.249-6.7513c13.668-13.6683 13.668-35.8291 0-49.4974-13.669-13.66839-35.8294-13.66839-49.4977 0l49.4977 49.4974Zm-112.4977 0 31.5 31.5 49.4974-49.4974-31.5-31.5-49.4974 49.4974Zm80.9974 31.5 31.5003-31.5-49.4977-49.4974-31.5 31.5 49.4974 49.4974Z"></path></symbol><symbol id="bbburst-shape-8" viewBox="0 0 87 168"><path d="m12 12 31.2546 18.0749c16.4102 9.4902 20.014 31.6325 7.4603 45.8369L36.3296 92.1884c-12.5684 14.2206-8.9394 36.3916 7.5068 45.8636L75 156" stroke-width="14" stroke-linecap="round" stroke-linejoin="round"></path></symbol><symbol id="bbburst-shape-10" viewBox="0 0 145 145"><circle cx="72.5" cy="72.5" r="61.5" fill="none" stroke-width="22"></circle></symbol></defs><use xlink:href="#bbburst-shape-10" width="15.605332013390735" opacity="0.7723836783919767" transform="matrix(0.8721410905742077,-0.48925445131550066,0.48925445131550066,0.8721410905742077,232.3935345475259,151.25916891947548)" fill="none" stroke="#c97f72" filter="url(#bbburst-blur-1)"></use><use xlink:href="#bbburst-shape-6" width="35.73932298248298" opacity="0.4716775163757595" transform="matrix(0.9997168190325435,-0.02379667505036603,0.02379667505036603,0.9997168190325435,310.2142291658083,229.9482972423088)" fill="#fff9e6" filter="url(#bbburst-blur-2)"></use><use xlink:href="#bbburst-shape-6" width="35.20637987047042" opacity="0.21064939591252674" transform="matrix(0.9746032324638936,0.7827186846312855,-0.7827186846312855,0.9746032324638936,437.07258163941333,239.61902871176045)" fill="#c97f72" filter="url(#bbburst-blur-3)"></use><use xlink:href="#bbburst-shape-10" width="25.643465271383242" opacity="0.6117792875896995" transform="matrix(0.9876622574309548,-0.1565990588936929,0.1565990588936929,0.9876622574309548,457.2634277080623,120.72324367829776)" fill="none" stroke="#c97f72" filter="url(#bbburst-blur-1)"></use><use xlink:href="#bbburst-shape-10" width="11.903308130696457" opacity="0.9094939642858827" transform="matrix(0.9999454593475771,0.01044405716965583,-0.01044405716965583,0.9999454593475771,424.6669488481419,-31.01837718928283)" fill="none" stroke="#c97949"></use><use xlink:href="#bbburst-shape-4" width="10.359663173731628" opacity="0.9414405408749458" transform="matrix(0.8842314918821911,0.4670488933332298,-0.4670488933332298,0.8842314918821911,582.537104608269,17.546461750664605)" fill="#e5c6b4"></use><use xlink:href="#bbburst-shape-10" width="22.213727416880687" opacity="0.6430618911353116" transform="matrix(0.9848683153806788,-0.17330436047377404,0.17330436047377404,0.9848683153806788,396.51179947908554,149.06433132296547)" fill="none" stroke="#fff9e6" filter="url(#bbburst-blur-1)"></use><use xlink:href="#bbburst-shape-1" width="41.73762140189647" opacity="0.07159440346394641" transform="matrix(1.7198404668642826,0.32349461902177984,-0.32349461902177984,1.7198404668642826,138.40178477535338,-74.4696607729793)" fill="#b29584" filter="url(#bbburst-blur-4)"></use><use xlink:href="#bbburst-shape-10" width="32.14371864794622" opacity="0.04188555124219984" transform="matrix(1.5477170257441852,0.8167447632042542,-0.8167447632042542,1.5477170257441852,1059.6329512160207,8.335562499029834)" fill="none" stroke="#b29584" filter="url(#bbburst-blur-4)"></use><use xlink:href="#bbburst-shape-8" width="24.346777907781153" opacity="0.4553312731450547" transform="matrix(0.9182529531013982,0.3959943359703032,-0.3959943359703032,0.9182529531013982,785.3195452469957,-30.28383582386357)" fill="none" stroke="#c97f72" filter="url(#bbburst-blur-2)"></use><use xlink:href="#bbburst-shape-4" width="23.39034876288538" opacity="0.7033759696803168" transform="matrix(0.9633414442735967,-0.2682783288766741,0.2682783288766741,0.9633414442735967,253.2886949634467,-112.65962974825828)" fill="#c97949" filter="url(#bbburst-blur-1)"></use><use xlink:href="#bbburst-shape-8" width="34.12245873674606" opacity="0.44135972760468556" transform="matrix(0.9665201603745747,0.2565906849234913,-0.2565906849234913,0.9665201603745747,736.8650356101878,27.346659938314758)" fill="none" stroke="#c97f72" filter="url(#bbburst-blur-2)"></use><use xlink:href="#bbburst-shape-10" width="33.15538418273785" opacity="0.45771660825087157" transform="matrix(0.9884150499895639,0.15177512626951722,-0.15177512626951722,0.9884150499895639,636.737203716655,-147.97124281226712)" fill="none" stroke="#e5c6b4" filter="url(#bbburst-blur-2)"></use><use xlink:href="#bbburst-shape-6" width="28.866605768592496" opacity="0.16341602223764184" transform="matrix(1.2457525727301346,0.10295886332050735,-0.10295886332050735,1.2457525727301346,55.79011755774362,-181.8346422289889)" fill="#fff9e6" filter="url(#bbburst-blur-3)"></use><use xlink:href="#bbburst-shape-1" width="31.641397467939363" opacity="0.42057226924936064" transform="matrix(0.8429793503685015,0.537945921866036,-0.537945921866036,0.8429793503685015,503.84767224568054,-187.30430680611073)" fill="#e5c6b4" filter="url(#bbburst-blur-2)"></use><use xlink:href="#bbburst-shape-4" width="43.53875611370739" opacity="0.18800319244653352" transform="matrix(1.2294033333567849,0.22598106985149402,-0.22598106985149402,1.2294033333567849,715.518252077378,168.06273619110522)" fill="#e5c6b4" filter="url(#bbburst-blur-3)"></use><use xlink:href="#bbburst-shape-6" width="11.489079401571933" opacity="0.8965509600279654" transform="matrix(0.9673132462273044,-0.2535844704890154,0.2535844704890154,0.9673132462273044,339.09549746660133,7.960890019521457)" fill="#e5c6b4"></use><use xlink:href="#bbburst-shape-10" width="45.22934463209396" opacity="0.25857052241284784" transform="matrix(1.1482025511175782,0.49409604492151626,-0.49409604492151626,1.1482025511175782,382.0418249506596,-344.9692335698849)" fill="none" stroke="#b29584" filter="url(#bbburst-blur-3)"></use><use xlink:href="#bbburst-shape-6" width="23.986797441664564" opacity="0.6494153778505227" transform="matrix(0.8931391823006292,0.4497803920129951,-0.4497803920129951,0.8931391823006292,486.5673212339201,171.7413485581106)" fill="#c97f72" filter="url(#bbburst-blur-1)"></use><use xlink:href="#bbburst-shape-6" width="30.74682785266043" opacity="-0.05977967124919936" transform="matrix(1.5327760784000881,0.8444510012336102,-0.8444510012336102,1.5327760784000881,1020.6703432629387,-591.4961759104585)" fill="#b29584" filter="url(#bbburst-blur-4)"></use><use xlink:href="#bbburst-shape-1" width="37.43768215500872" opacity="0.11306303299400822" transform="matrix(1.1868606009383555,0.39225236001870695,-0.39225236001870695,1.1868606009383555,889.1236739405988,-265.4889779447018)" fill="#c97949" filter="url(#bbburst-blur-3)"></use><use xlink:href="#bbburst-shape-4" width="25.76145240495422" opacity="0.7027074403743583" transform="matrix(0.8575133191192551,-0.5144617648893632,0.5144617648893632,0.8575133191192551,54.256092510032545,99.35785960282908)" fill="#c97949" filter="url(#bbburst-blur-1)"></use><use xlink:href="#bbburst-shape-6" width="28.874706657142056" opacity="0.6325614889741058" transform="matrix(0.9970161822838305,-0.0771928252117753,0.0771928252117753,0.9970161822838305,473.0458967416769,-113.19390480275871)" fill="#c97f72" filter="url(#bbburst-blur-1)"></use><use xlink:href="#bbburst-shape-6" width="37.1705896205087" opacity="0.29503339274204243" transform="matrix(1.2405823694801945,-0.15315150843170253,0.15315150843170253,1.2405823694801945,20.310922213025208,-209.11610945880102)" fill="#a47451" filter="url(#bbburst-blur-3)"></use><use xlink:href="#bbburst-shape-4" width="21.063856704487748" opacity="0.6590756769266894" transform="matrix(0.7576420866022735,-0.6526702602455188,0.6526702602455188,0.7576420866022735,272.8743762326299,162.12527095231638)" fill="#e5c6b4" filter="url(#bbburst-blur-1)"></use><use xlink:href="#bbburst-shape-6" width="27.503411667787464" opacity="0.35694794634750715" transform="matrix(0.7795342387787345,-0.6263596176092924,0.6263596176092924,0.7795342387787345,296.3036351721931,339.5129539346707)" fill="#e5c6b4" filter="url(#bbburst-blur-2)"></use><use xlink:href="#bbburst-shape-6" width="45.49701934676139" opacity="0.2526518685834429" transform="matrix(1.2330592636602307,-0.20509717770288746,0.20509717770288746,1.2330592636602307,545.670761206813,-306.9357628672507)" fill="#c97949" filter="url(#bbburst-blur-3)"></use><use xlink:href="#bbburst-shape-6" width="17.947079524417283" opacity="0.8139862720529772" transform="matrix(0.9912308705303047,0.1321414443228709,-0.1321414443228709,0.9912308705303047,415.8538147271407,-76.52379606387836)" fill="#c97949"></use><use xlink:href="#bbburst-shape-10" width="17.927646128605595" opacity="0.7298494625417123" transform="matrix(0.907108763901597,-0.42089629417817026,0.42089629417817026,0.907108763901597,310.0141828175977,126.34477536385208)" fill="none" stroke="#b29584" filter="url(#bbburst-blur-1)"></use><use xlink:href="#bbburst-shape-10" width="27.78733596700159" opacity="0.5182106512493188" transform="matrix(0.7734060521763202,-0.6339109388999681,0.6339109388999681,0.7734060521763202,12.275384424602464,277.6955552347195)" fill="none" stroke="#fff9e6" filter="url(#bbburst-blur-2)"></use><use xlink:href="#bbburst-shape-8" width="37.432680181269006" opacity="0.25110702742348245" transform="matrix(0.9200684801893168,-0.8461524636625015,0.8461524636625015,0.9200684801893168,381.0502020902867,61.305159170615354)" fill="none" stroke="#c97949" filter="url(#bbburst-blur-3)"></use><use xlink:href="#bbburst-shape-10" width="12.629172982234586" opacity="0.9064283284266743" transform="matrix(0.9264628320028898,-0.3763862655799028,0.3763862655799028,0.9264628320028898,269.7878768396607,64.76078446460929)" fill="none" stroke="#fff9e6"></use><use xlink:href="#bbburst-shape-4" width="18.62756284141349" opacity="0.704948537430492" transform="matrix(0.988652136796834,-0.15022300891359575,0.15022300891359575,0.988652136796834,463.3737602863314,11.224713326692324)" fill="#a47451" filter="url(#bbburst-blur-1)"></use><use xlink:href="#bbburst-shape-6" width="30.179171324154247" opacity="0.4655890878029544" transform="matrix(0.9554811743941916,-0.29505207231655983,0.29505207231655983,0.9554811743941916,105.87778801295696,-155.76067717259713)" fill="#c97949" filter="url(#bbburst-blur-2)"></use><use xlink:href="#bbburst-shape-6" width="11.779576899808633" opacity="0.8809397285578766" transform="matrix(0.9637082738668327,0.26695760502486127,-0.26695760502486127,0.9637082738668327,508.2040858902491,66.0494788828496)" fill="#fff9e6"></use><use xlink:href="#bbburst-shape-10" width="46.199798191685446" opacity="-0.07354218073327279" transform="matrix(1.3268671919051231,1.1410186041628827,-1.1410186041628827,1.3268671919051231,480.27725888845697,-494.7780681082538)" fill="none" stroke="#c97f72" filter="url(#bbburst-blur-4)"></use><use xlink:href="#bbburst-shape-4" width="26.87274390160885" opacity="0.585828199544045" transform="matrix(0.846294914364517,0.53271466839271,-0.53271466839271,0.846294914364517,787.8701049318172,63.16708472383971)" fill="#e5c6b4" filter="url(#bbburst-blur-1)"></use><use xlink:href="#bbburst-shape-10" width="25.026737755893386" opacity="0.5149978883082611" transform="matrix(0.7142603860680109,-0.6998800617920016,0.6998800617920016,0.7142603860680109,308.34042328148354,216.5079977935672)" fill="none" stroke="#a47451" filter="url(#bbburst-blur-2)"></use><use xlink:href="#bbburst-shape-6" width="32.1549736528695" opacity="0.5954999707885757" transform="matrix(0.8391343704772849,-0.5439241751234182,0.5439241751234182,0.8391343704772849,79.6712386661018,-85.54114536669127)" fill="#b29584" filter="url(#bbburst-blur-1)"></use><use xlink:href="#bbburst-shape-6" width="23.483469105415097" opacity="0.640192491504578" transform="matrix(0.9101158228251094,0.4143539417495315,-0.4143539417495315,0.9101158228251094,595.0827606750096,-125.79896571489215)" fill="#b29584" filter="url(#bbburst-blur-1)"></use><use xlink:href="#bbburst-shape-10" width="26.63485097068152" opacity="0.15628226591909977" transform="matrix(1.1745835109370433,-0.42761381623470585,0.42761381623470585,1.1745835109370433,578.219569373893,40.713922507537575)" fill="none" stroke="#a47451" filter="url(#bbburst-blur-3)"></use><use xlink:href="#bbburst-shape-4" width="38.275866806525514" opacity="-0.024308775847388997" transform="matrix(1.686659698584057,0.46656088688652164,-0.46656088688652164,1.686659698584057,907.0786259034683,-580.2367311613853)" fill="#fff9e6" filter="url(#bbburst-blur-4)"></use><use xlink:href="#bbburst-shape-8" width="29.830593910730926" opacity="0.454390377904071" transform="matrix(0.8316969247712559,0.5552298851160985,-0.5552298851160985,0.8316969247712559,645.6607979893313,-183.83480326589986)" fill="none" stroke="#c97f72" filter="url(#bbburst-blur-2)"></use><use xlink:href="#bbburst-shape-6" width="26.067666988028808" opacity="0.563273887569032" transform="matrix(0.8962694139283882,0.443510019792635,-0.443510019792635,0.8962694139283882,539.0210792837568,-158.99258997161579)" fill="#c97f72" filter="url(#bbburst-blur-1)"></use><use xlink:href="#bbburst-shape-6" width="14.03254350577445" opacity="0.824199899915458" transform="matrix(0.9595346568468704,0.28159055792010956,-0.28159055792010956,0.9595346568468704,558.1101969618936,73.64871819013757)" fill="#c97f72"></use><use xlink:href="#bbburst-shape-4" width="40.840072651730175" opacity="0.08177062289920467" transform="matrix(1.6988000999223223,0.42021211370438555,-0.42021211370438555,1.6988000999223223,308.2320993481816,58.43801035540537)" fill="#c97f72" filter="url(#bbburst-blur-4)"></use><use xlink:href="#bbburst-shape-8" width="42.58257925100338" opacity="-0.07384558692487464" transform="matrix(1.7120823973752595,0.36231735343174487,-0.36231735343174487,1.7120823973752595,167.5397294516855,49.907525732895806)" fill="none" stroke="#c97949" filter="url(#bbburst-blur-4)"></use><use xlink:href="#bbburst-shape-10" width="42.42220187624325" opacity="0.32511644481526303" transform="matrix(0.8860059668474428,-0.8817558770491569,0.8817558770491569,0.8860059668474428,-122.48174564768576,327.80658615558474)" fill="none" stroke="#e5c6b4" filter="url(#bbburst-blur-3)"></use><use xlink:href="#bbburst-shape-8" width="17.443782106507804" opacity="0.7123961060039188" transform="matrix(0.9999563720440638,0.00934098541235761,-0.00934098541235761,0.9999563720440638,518.2560041896164,-39.58130904974837)" fill="none" stroke="#b29584" filter="url(#bbburst-blur-1)"></use><use xlink:href="#bbburst-shape-6" width="40.305483513075146" opacity="0.28379698797470543" transform="matrix(1.2129411735892253,0.3021153908889663,-0.3021153908889663,1.2129411735892253,174.1606181912773,-85.58498726278162)" fill="#a47451" filter="url(#bbburst-blur-3)"></use><use xlink:href="#bbburst-shape-4" width="19.799880081295278" opacity="0.8170888907532595" transform="matrix(0.7117724793239224,-0.7024100922374881,0.7024100922374881,0.7117724793239224,39.48038933265133,161.187614781886)" fill="#b29584"></use><use xlink:href="#bbburst-shape-4" width="24.324756727481414" opacity="0.5176232783451264" transform="matrix(0.9566247954909364,0.2913228460864754,-0.2913228460864754,0.9566247954909364,573.0635318738432,219.91356433044427)" fill="#e5c6b4" filter="url(#bbburst-blur-2)"></use><use xlink:href="#bbburst-shape-10" width="36.05334300953104" opacity="0.22973987654423422" transform="matrix(0.953479990478393,-0.8083167125312476,0.8083167125312476,0.953479990478393,92.11605368352764,-311.8984268881346)" fill="none" stroke="#e5c6b4" filter="url(#bbburst-blur-3)"></use><use xlink:href="#bbburst-shape-6" width="13.17245768594844" opacity="0.9502768501035416" transform="matrix(0.9293633506293254,-0.36916630738331674,0.36916630738331674,0.9293633506293254,225.69412572851442,21.761290565712216)" fill="#e5c6b4"></use><use xlink:href="#bbburst-shape-4" width="28.430209401000944" opacity="0.4076841141135965" transform="matrix(0.8537401286577739,-0.5206993304387932,0.5206993304387932,0.8537401286577739,207.85646281869361,330.96772479035303)" fill="#b29584" filter="url(#bbburst-blur-2)"></use><use xlink:href="#bbburst-shape-8" width="33.38934956297215" opacity="0.37574737659087964" transform="matrix(0.985586461364375,0.16917247759387247,-0.16917247759387247,0.985586461364375,670.7543746498277,178.1979024642876)" fill="none" stroke="#c97949" filter="url(#bbburst-blur-2)"></use><use xlink:href="#bbburst-shape-10" width="27.675516205836303" opacity="0.6419718488168094" transform="matrix(0.9996843319930214,0.025124417757763112,-0.025124417757763112,0.9996843319930214,272.1701818591612,-103.03109293616029)" fill="none" stroke="#c97949" filter="url(#bbburst-blur-1)"></use><use xlink:href="#bbburst-shape-10" width="10.692117677952847" opacity="0.8858002209837299" transform="matrix(0.97762292232544,0.21036497271139673,-0.21036497271139673,0.97762292232544,452.15383580447843,-36.04312056005426)" fill="none" stroke="#b29584"></use><use xlink:href="#bbburst-shape-4" width="20.584200359866866" opacity="0.8121662585865552" transform="matrix(0.973582649400494,-0.2283348961204019,0.2283348961204019,0.973582649400494,382.53748373834173,2.571380162971195)" fill="#c97f72"></use><use xlink:href="#bbburst-shape-10" width="22.331138857451467" opacity="0.7075030984409406" transform="matrix(0.9999540212902792,-0.009589332896498612,0.009589332896498612,0.9999540212902792,259.3841236290786,-39.188956804531244)" fill="none" stroke="#e5c6b4" filter="url(#bbburst-blur-1)"></use><use xlink:href="#bbburst-shape-10" width="22.468192258167832" opacity="0.7344826279937611" transform="matrix(0.9323496230435859,0.3615579903839537,-0.3615579903839537,0.9323496230435859,461.87213355807677,-72.14459937683819)" fill="none" stroke="#c97949" filter="url(#bbburst-blur-1)"></use><use xlink:href="#bbburst-shape-6" width="44.58960811794748" opacity="0.30762500372357127" transform="matrix(1.0667168374330793,0.6516250369167607,-0.6516250369167607,1.0667168374330793,353.3566950733723,88.00182057244558)" fill="#c97f72" filter="url(#bbburst-blur-3)"></use><use xlink:href="#bbburst-shape-8" width="22.37428914123816" opacity="0.7998673005089272" transform="matrix(0.9937113405907976,-0.11197219110672003,0.11197219110672003,0.9937113405907976,254.04348480276573,2.5043235536152224)" fill="none" stroke="#b29584"></use><use xlink:href="#bbburst-shape-4" width="16.2539473585054" opacity="0.7523757720773725" transform="matrix(0.9083653285473896,0.41817751002773096,-0.41817751002773096,0.9083653285473896,650.2052375624824,-31.989652237186306)" fill="#c97949" filter="url(#bbburst-blur-1)"></use><use xlink:href="#bbburst-shape-8" width="14.635907410810542" opacity="0.8564278722720114" transform="matrix(0.9525202881093205,0.304475123351871,-0.304475123351871,0.9525202881093205,529.5048854501986,-46.15257931906382)" fill="none" stroke="#c97f72"></use><use xlink:href="#bbburst-shape-1" width="43.65267300364811" opacity="0.06178135486141234" transform="matrix(1.7499297535044216,-0.01567985331419109,0.01567985331419109,1.7499297535044216,118.50916824335462,-648.9171723484411)" fill="#c97f72" filter="url(#bbburst-blur-4)"></use><use xlink:href="#bbburst-shape-10" width="35.69448577958387" opacity="0.1621809792920852" transform="matrix(1.2434377219299513,-0.12791650277291464,0.12791650277291464,1.2434377219299513,211.57533421284273,263.9382002796018)" fill="none" stroke="#e5c6b4" filter="url(#bbburst-blur-3)"></use><use xlink:href="#bbburst-shape-1" width="18.134720283693074" opacity="0.7447192083235317" transform="matrix(0.9651140666900613,0.2618297887501956,-0.2618297887501956,0.9651140666900613,555.0092857924526,-86.9441227341211)" fill="#c97f72" filter="url(#bbburst-blur-1)"></use><use xlink:href="#bbburst-shape-4" width="32.25212475529226" opacity="0.3140758327729596" transform="matrix(1.2403836706134754,-0.15475254335693855,0.15475254335693855,1.2403836706134754,269.89313870650307,211.25644670870219)" fill="#c97f72" filter="url(#bbburst-blur-3)"></use><use xlink:href="#bbburst-shape-10" width="33.38012832911858" opacity="0.3237919929432794" transform="matrix(1.1577255572673055,-0.47135075479955146,0.47135075479955146,1.1577255572673055,150.07969033334993,-356.5964799364421)" fill="none" stroke="#a47451" filter="url(#bbburst-blur-3)"></use><use xlink:href="#bbburst-shape-6" width="34.16441255424877" opacity="0.0637574043629121" transform="matrix(1.4569873150382002,0.9693750377525593,-0.9693750377525593,1.4569873150382002,993.1178614669628,153.46837550010537)" fill="#c97949" filter="url(#bbburst-blur-4)"></use><use xlink:href="#bbburst-shape-8" width="19.497689392649008" opacity="0.8034444646986012" transform="matrix(0.9428761658708108,-0.3331434163130938,0.3331434163130938,0.9428761658708108,184.3674435530492,-23.57779510948268)" fill="none" stroke="#b29584"></use><use xlink:href="#bbburst-shape-8" width="34.282416130073614" opacity="0.15786610962761616" transform="matrix(1.046242407885911,0.6840152220097819,-0.6840152220097819,1.046242407885911,783.2336692406998,-387.06764676503195)" fill="none" stroke="#b29584" filter="url(#bbburst-blur-3)"></use><use xlink:href="#bbburst-shape-4" width="35.87428937231153" opacity="0.1968286846142323" transform="matrix(1.175486801902011,-0.42512442714360954,0.42512442714360954,1.175486801902011,223.27483356786226,298.60938268030094)" fill="#b29584" filter="url(#bbburst-blur-3)"></use><use xlink:href="#bbburst-shape-4" width="31.946785840046864" opacity="0.5353311980123756" transform="matrix(0.9998985613438955,-0.014243139485658567,0.014243139485658567,0.9998985613438955,192.38403669411827,-95.34187946569926)" fill="#e5c6b4" filter="url(#bbburst-blur-2)"></use><use xlink:href="#bbburst-shape-6" width="24.087816200360365" opacity="0.5898886749969352" transform="matrix(0.9561801514247482,-0.29277895761366723,0.29277895761366723,0.9561801514247482,253.96018726629563,204.781253175065)" fill="#a47451" filter="url(#bbburst-blur-1)"></use><use xlink:href="#bbburst-shape-4" width="39.58602409548584" opacity="0.1380246293851316" transform="matrix(1.2371315822013143,0.1789006660693932,-0.1789006660693932,1.2371315822013143,663.8436924499781,-420.01010062678415)" fill="#b29584" filter="url(#bbburst-blur-3)"></use><use xlink:href="#bbburst-shape-4" width="32.698835540337726" opacity="0.5732190688729859" transform="matrix(0.7133353351225169,-0.700822873246619,0.700822873246619,0.7133353351225169,-58.13903260437186,222.43599415652182)" fill="#c97f72" filter="url(#bbburst-blur-1)"></use><use xlink:href="#bbburst-shape-4" width="53.32827634122211" opacity="0.0934528377762126" transform="matrix(1.7209069451421175,-0.31777238105540945,0.31777238105540945,1.7209069451421175,-116.13760631740617,-500.4035243189929)" fill="#c97f72" filter="url(#bbburst-blur-4)"></use><use xlink:href="#bbburst-shape-1" width="27.445862428307763" opacity="0.17847187653745045" transform="matrix(1.1193917406802405,-0.5562932058697653,0.5562932058697653,1.1193917406802405,525.7343377189796,-106.93289068145361)" fill="#c97f72" filter="url(#bbburst-blur-3)"></use><use xlink:href="#bbburst-shape-4" width="13.507505507139346" opacity="0.8414220451297258" transform="matrix(0.9931643330797237,-0.11672449399465183,0.11672449399465183,0.9931643330797237,401.3796418443764,-42.20243699360208)" fill="#c97f72"></use><use xlink:href="#bbburst-shape-4" width="31.52359939352374" opacity="0.16640193825402316" transform="matrix(1.0824549175450717,-0.6251330670205282,0.6251330670205282,1.0824549175450717,27.157170896738762,-383.0034891217259)" fill="#e5c6b4" filter="url(#bbburst-blur-3)"></use><use xlink:href="#bbburst-shape-4" width="19.540889866189158" opacity="0.7657758700899379" transform="matrix(0.9921316031307262,0.12519936928457434,-0.12519936928457434,0.9921316031307262,453.673563802169,-102.6179870614688)" fill="#c97949" filter="url(#bbburst-blur-1)"></use><use xlink:href="#bbburst-shape-10" width="25.90962732887118" opacity="0.2938286714629431" transform="matrix(0.9442920776222883,0.8190314231699432,-0.8190314231699432,0.9442920776222883,826.351486257285,309.44363504031844)" fill="none" stroke="#c97949" filter="url(#bbburst-blur-3)"></use><use xlink:href="#bbburst-shape-6" width="16.293088916788857" opacity="0.883026754144592" transform="matrix(0.9489807025171149,-0.31533415014889055,0.31533415014889055,0.9489807025171149,237.37595081791852,67.06355700325884)" fill="#c97f72"></use><use xlink:href="#bbburst-shape-4" width="40.60790877322145" opacity="0.30952994398380973" transform="matrix(0.9205757609920361,-0.8456005370586834,0.8456005370586834,0.9205757609920361,-201.95044583674107,-142.05643950139222)" fill="#b29584" filter="url(#bbburst-blur-3)"></use><use xlink:href="#bbburst-shape-10" width="32.267639645842436" opacity="0.3552308752608201" transform="matrix(0.8240959458719347,-0.5664502378827652,0.5664502378827652,0.8240959458719347,434.47925048272305,173.91465410725505)" fill="none" stroke="#fff9e6" filter="url(#bbburst-blur-2)"></use><use xlink:href="#bbburst-shape-10" width="32.08834212355292" opacity="0.21436558316520782" transform="matrix(1.2414623843767165,-0.14584631698359124,0.14584631698359124,1.2414623843767165,629.4999255474208,79.74687685722466)" fill="none" stroke="#fff9e6" filter="url(#bbburst-blur-3)"></use><use xlink:href="#bbburst-shape-8" width="16.42996450066634" opacity="0.7768586287713501" transform="matrix(0.9600941144317234,-0.27967711996794575,0.27967711996794575,0.9600941144317234,373.9740918658862,54.27640289507576)" fill="none" stroke="#c97949" filter="url(#bbburst-blur-1)"></use><use xlink:href="#bbburst-shape-10" width="37.01029759553507" opacity="0.41635162046367935" transform="matrix(0.7624482833534036,-0.64704915981048,0.64704915981048,0.7624482833534036,-74.58130560330542,275.270983749786)" fill="none" stroke="#fff9e6" filter="url(#bbburst-blur-2)"></use><use xlink:href="#bbburst-shape-10" width="29.661012945899227" opacity="0.35731949550446984" transform="matrix(0.7789985805976247,0.6270256864171403,-0.6270256864171403,0.7789985805976247,779.2456109736413,-173.9667594009582)" fill="none" stroke="#c97949" filter="url(#bbburst-blur-2)"></use><use xlink:href="#bbburst-shape-10" width="36.962083328782235" opacity="0.45463186148138923" transform="matrix(0.8279597682339052,0.5607875018097837,-0.5607875018097837,0.8279597682339052,368.4501564124105,9.891340614503918)" fill="none" stroke="#b29584" filter="url(#bbburst-blur-2)"></use><use xlink:href="#bbburst-shape-4" width="19.387337634864213" opacity="0.7208677010179507" transform="matrix(0.9978489447924384,-0.06555519336114593,0.06555519336114593,0.9978489447924384,334.91232868093323,123.6833107014861)" fill="#c97f72" filter="url(#bbburst-blur-1)"></use><use xlink:href="#bbburst-shape-6" width="17.327544385604828" opacity="0.674054888449945" transform="matrix(0.7341984059258407,-0.6789349753370748,0.6789349753370748,0.7341984059258407,144.77292479787667,257.1098014041232)" fill="#b29584" filter="url(#bbburst-blur-1)"></use><use xlink:href="#bbburst-shape-10" width="15.449484437927005" opacity="0.8639305856738411" transform="matrix(0.852367439142224,0.5229433513203194,-0.5229433513203194,0.852367439142224,659.3400718730426,78.01421645205318)" fill="none" stroke="#c97949"></use><use xlink:href="#bbburst-shape-1" width="33.900163860564646" opacity="0.4693861605898212" transform="matrix(0.7658670265012498,0.6429989873383425,-0.6429989873383425,0.7658670265012498,410.4813421230647,131.719876113333)" fill="#fff9e6" filter="url(#bbburst-blur-2)"></use><use xlink:href="#bbburst-shape-10" width="23.622567253844405" opacity="0.5305712959832303" transform="matrix(0.878244301311308,0.47821224076158103,-0.47821224076158103,0.878244301311308,686.3189065142158,-140.01128663834314)" fill="none" stroke="#c97f72" filter="url(#bbburst-blur-2)"></use><use xlink:href="#bbburst-shape-8" width="20.770780634653793" opacity="0.7926757971217895" transform="matrix(0.8552411820797341,0.5182301809764259,-0.5182301809764259,0.8552411820797341,547.7545031978426,130.86777438365272)" fill="none" stroke="#e5c6b4"></use><use xlink:href="#bbburst-shape-8" width="27.601642720909297" opacity="0.14108193449780493" transform="matrix(0.9118309256609956,-0.8550230189931802,0.8550230189931802,0.9118309256609956,170.92771935209714,412.6314501134364)" fill="none" stroke="#fff9e6" filter="url(#bbburst-blur-3)"></use><use xlink:href="#bbburst-shape-10" width="11.890134881277374" opacity="0.9627312677486122" transform="matrix(0.9179514975795884,-0.3966926368000685,0.3966926368000685,0.9179514975795884,252.4948507369792,37.3535741470173)" fill="none" stroke="#a47451"></use><use xlink:href="#bbburst-shape-6" width="11.894864292293427" opacity="0.876413060761599" transform="matrix(0.7694794757056326,0.6386715403615421,-0.6386715403615421,0.7694794757056326,598.3134219062546,70.2876866049096)" fill="#b29584"></use><use xlink:href="#bbburst-shape-4" width="42.83964973372154" opacity="0.31082369183482905" transform="matrix(1.2046247651000703,-0.3337351873980332,0.3337351873980332,1.2046247651000703,530.3147675094386,-185.61731167883676)" fill="#e5c6b4" filter="url(#bbburst-blur-3)"></use><use xlink:href="#bbburst-shape-4" width="14.622343660721526" opacity="0.8975302074577602" transform="matrix(0.9723101019838543,0.23369438499918438,-0.23369438499918438,0.9723101019838543,442.21142359047565,22.671016529424776)" fill="#c97949"></use><use xlink:href="#bbburst-shape-6" width="25.452477159783495" opacity="0.5085977063268614" transform="matrix(0.9980739830233462,-0.06203486448694283,0.06203486448694283,0.9980739830233462,503.23147568590105,172.11566462935195)" fill="#c97f72" filter="url(#bbburst-blur-2)"></use><use xlink:href="#bbburst-shape-4" width="49.955182002191734" opacity="-0.08554058074671822" transform="matrix(1.3942580298165343,1.0576126636401986,-1.0576126636401986,1.3942580298165343,1131.9231030085666,163.0178175814982)" fill="#b29584" filter="url(#bbburst-blur-4)"></use><use xlink:href="#bbburst-shape-6" width="10.027513822778495" opacity="0.9559570044228227" transform="matrix(0.9200009549010312,-0.39191611727663195,0.39191611727663195,0.9200009549010312,231.5951035704585,52.49693810790819)" fill="#a47451"></use><use xlink:href="#bbburst-shape-1" width="20.260653412022542" opacity="0.5950746107825791" transform="matrix(0.8476730765384944,0.5305189490600347,-0.5305189490600347,0.8476730765384944,772.7370099514583,-12.227802669786172)" fill="#e5c6b4" filter="url(#bbburst-blur-1)"></use><use xlink:href="#bbburst-shape-10" width="15.185131807362986" opacity="0.8132638755321235" transform="matrix(0.9970538027638947,0.0767053739581311,-0.0767053739581311,0.9970538027638947,416.96170896430465,84.40197403867279)" fill="none" stroke="#b29584"></use><use xlink:href="#bbburst-shape-8" width="30.236826383586646" opacity="0.16807981507373715" transform="matrix(1.1831759704505314,-0.40323023565755006,0.40323023565755006,1.1831759704505314,-142.32726959177867,23.778595888225254)" fill="none" stroke="#b29584" filter="url(#bbburst-blur-3)"></use><use xlink:href="#bbburst-shape-4" width="34.596829089561126" opacity="0.609511585818935" transform="matrix(0.7129710123637754,-0.701193507905609,0.701193507905609,0.7129710123637754,-68.49493382750805,124.78216801094436)" fill="#a47451" filter="url(#bbburst-blur-1)"></use><use xlink:href="#bbburst-shape-6" width="19.61507525198965" opacity="0.7109233530876757" transform="matrix(0.769950606423206,-0.6381034897793126,0.6381034897793126,0.769950606423206,36.304616014979786,180.37929803727513)" fill="#e5c6b4" filter="url(#bbburst-blur-1)"></use></svg>