<svg xmlns="http://www.w3.org/2000/svg" version="1.1" xmlns:xlink="http://www.w3.org/1999/xlink" xmlns:svgjs="http://svgjs.dev/svgjs" viewBox="0 0 800 800"><defs><filter id="uuunion-blur" x="-100%" y="-100%" width="400%" height="400%" color-interpolation-filters="sRGB">
        <feGaussianBlur in="SourceGraphic" stdDeviation="7.5 0" result="blur"></feGaussianBlur>
        <feDropShadow stdDeviation="12.307692307692308" in="blur" dx="10" dy="10" flood-color="#e5c6b4" flood-opacity="0.25" x="0%" y="0%" width="100%" height="100%"></feDropShadow>
      </filter><filter id="uuunion-blur2" x="-100%" y="-100%" width="400%" height="400%" color-interpolation-filters="sRGB">
        <feGaussianBlur in="SourceGraphic" stdDeviation="7.5 0" result="blur"></feGaussianBlur>
        <feDropShadow stdDeviation="12.307692307692308" in="blur" dx="-10" dy="-10" flood-color="#e5c6b4" flood-opacity="0.25" x="0%" y="0%" width="100%" height="100%"></feDropShadow>
      </filter><linearGradient gradientTransform="rotate(0, 0.5, 0.5)" x1="50%" y1="0%" x2="50%" y2="100%" id="uuunion-grad"><stop stop-color="#ca9c7f" offset="10%"></stop><stop stop-color="#e5c6b4" offset="90%"></stop></linearGradient><linearGradient gradientTransform="rotate(135, 0.5, 0.5)" x1="50%" y1="0%" x2="50%" y2="100%" id="uuunion-grad2"><stop stop-color="#ca9c7f" offset="25%"></stop><stop stop-color="#e5c6b4" offset="100%"></stop></linearGradient><linearGradient gradientTransform="rotate(333, 0.5, 0.5)" x1="50%" y1="0%" x2="50%" y2="100%" id="uuunion-grad3"><stop stop-color="#ca9c7f" offset="0%"></stop><stop stop-color="#e5c6b4" offset="75%"></stop></linearGradient></defs><path d="M-79.16 -88.16Q-64.46 -85.46 -49.76 -81.34 -35.06 -76.86 -20.35 -73.21 -5.65 -71.33 9.04 -71.71 23.74 -74.27 38.45 -78.32 53.15 -82.81 67.85 -86.57 82.55 -88.6 97.26 -88.38 111.96 -85.97 126.66 -82 141.37 -77.5 156.07 -73.65 170.77 -71.47 185.47 -71.51 200.18 -73.77 214.88 -77.67 229.58 -82.17 244.28 -86.1 258.99 -88.44 273.69 -88.56 288.39 -86.45 303.09 -82.65 317.8 -78.15 332.5 -74.14 347.2 -71.66 361.91 -71.36 376.61 -73.32 391.31 -77.03 406.01 -81.51 420.72 -85.6 435.42 -88.22 450.12 -88.69 464.82 -86.89 479.53 -83.28 494.23 -78.81 508.93 -74.65 523.63 -71.89 538.34 -71.25 553.04 -72.9 567.74 -76.4 582.45 -80.85 597.15 -85.07 611.85 -87.96 626.55 -88.77 641.26 -87.28 655.96 -83.89 670.66 -79.48 685.36 -75.2 700.07 -72.18 714.77 -71.2 729.47 -72.52 744.17 -75.8 758.88 -80.18 773.58 -84.5 788.28 -87.65 802.99 -88.79 817.69 -87.64 832.39 -84.48 847.09 -80.15 861.8 -75.78 856.88 -60.67 856.14 -45.56 859.72 -30.45 866.96 -15.35 876.56 -0.24 886.79 14.86 895.78 29.97 901.92 45.07 904.09 60.18 901.91 75.29 895.76 90.4 886.76 105.51 876.53 120.61 866.94 135.72 859.7 150.83 856.13 165.94 856.88 181.04 861.82 196.15 870.04 211.26 880.06 226.37 890.07 241.48 898.25 256.58 903.14 271.69 903.84 286.8 900.22 301.91 892.95 317.01 883.34 332.12 873.11 347.23 864.14 362.34 858.03 377.45 855.9 392.55 858.12 407.66 864.3 422.77 873.32 437.88 883.55 452.98 893.13 468.09 900.34 483.2 903.87 498.31 903.08 513.42 898.11 528.52 889.87 543.63 879.84 558.74 869.84 573.85 861.68 588.96 856.83 604.06 856.16 619.17 859.81 634.28 867.12 649.39 876.74 664.49 886.96 679.6 895.92 694.71 902 709.82 904.09 724.93 901.83 740.03 895.62 755.14 886.58 770.25 876.35 785.36 866.78 800.46 859.6 815.57 856.11 830.68 856.94 845.79 861.94 860.9 867.72 877.8 850.23 868.17 835.23 859.85 820.22 856.8 805.22 859.81 790.21 868.11 775.21 879.52 760.21 891.05 745.2 899.69 730.2 903.18 715.19 900.6 700.19 892.63 685.19 881.36 670.18 869.73 655.18 860.78 640.18 856.87 625.17 859 610.17 866.63 595.16 877.75 580.16 889.46 565.16 898.7 550.15 903.04 535.15 901.35 520.14 894.08 505.14 883.12 490.14 871.34 475.13 861.83 460.13 857.07 445.12 858.31 430.12 865.22 415.12 876 400.11 887.82 385.11 897.6 370.1 902.77 355.1 901.98 340.1 895.44 325.09 884.86 310.09 873.01 295.08 862.98 280.08 857.41 265.08 857.74 250.07 863.9 235.07 874.27 220.06 886.13 205.06 896.39 190.06 902.36 175.05 902.48 160.05 896.72 145.04 886.58 130.04 874.71 115.04 864.23 100.03 857.88 85.03 857.31 70.02 862.67 55.02 872.57 40.02 884.41 25.01 895.1 10.01 901.83 -4.99 902.85 -19.99 897.89 -34.99 888.25 -50 876.45 -65 865.58 -80.01 858.48 -79.55 843.68 -79.17 828.89 -78.94 814.1 -78.9 799.31 -79.06 784.52 -79.39 769.73 -79.83 754.94 -80.3 740.15 -80.71 725.35 -80.99 710.56 -81.09 695.77 -81 680.98 -80.72 666.19 -80.31 651.4 -79.85 636.61 -79.41 621.81 -79.07 607.02 -78.91 592.23 -78.94 577.44 -79.16 562.65 -79.53 547.86 -79.99 533.07 -80.45 518.28 -80.82 503.48 -81.05 488.69 -81.08 473.9 -80.92 459.11 -80.59 444.32 -80.16 429.53 -79.69 414.74 -79.28 399.95 -79 385.15 -78.9 370.36 -78.99 355.57 -79.27 340.78 -79.68 325.99 -80.15 311.2 -80.59 296.41 -80.92 281.61 -81.08 266.82 -81.05 252.03 -80.83 237.24 -80.45 222.45 -80 207.66 -79.54 192.87 -79.17 178.08 -78.94 163.28 -78.91 148.49 -79.07 133.7 -79.4 118.91 -79.84 104.12 -80.3 89.33 -80.71 74.54 -81 59.75 -81.09 44.95 -81 30.16 -80.72 15.37 -80.31 0.58 -79.84 -14.2 -79.4 -28.99 -79.07 -43.78 -78.91 -58.57 -78.94 -73.37 -79.16 -88.16" fill="url(#uuunion-grad)"></path><path d="M-79.16 -88.16Q-78.94 -73.37 -78.91 -58.57 -79.07 -43.78 -79.4 -28.99 -79.84 -14.2 -80.31 0.58 -80.72 15.37 -81 30.16 -81.09 44.95 -81 59.75 -80.71 74.54 -80.3 89.33 -79.84 104.12 -79.4 118.91 -79.07 133.7 -78.91 148.49 -78.94 163.28 -79.17 178.08 -79.54 192.87 -80 207.66 -80.45 222.45 -80.83 237.24 -81.05 252.03 -81.08 266.82 -80.92 281.61 -80.59 296.41 -80.15 311.2 -79.68 325.99 -79.27 340.78 -78.99 355.57 -78.9 370.36 -79 385.15 -69.23 388.05 -59.47 392.35 -49.71 397.55 -39.95 403.04 -30.19 408.17 -20.43 412.34 -2.13 415.74 1.03 415.96 13.12 407.71 25.22 396.97 37.37 384.56 49.59 371.62 61.92 359.38 74.38 348.9 86.98 340.93 99.74 335.76 112.66 333.15 125.74 332.41 138.96 332.53 152.3 332.33 165.74 330.73 179.23 326.9 192.74 320.44 206.22 311.41 219.63 300.35 232.92 288.15 246.04 275.92 258.96 264.73 271.63 255.46 284.04 248.63 296.16 244.32 307.99 242.14 319.52 241.33 330.78 240.88 341.79 239.73 352.59 236.99 363.23 232.02 373.76 224.64 384.26 215.07 394.78 203.96 405.4 192.2 416.19 180.8 427.22 170.68 438.56 162.53 450.25 156.67 462.34 152.98 474.88 150.97 487.86 149.85 501.31 148.68 515.2 146.54 529.5 142.7 544.17 136.76 559.16 128.68 574.38 118.84 589.76 107.9 605.19 96.75 620.59 86.26 635.85 77.19 650.87 70.03 665.56 64.91 679.83 61.59 693.6 59.52 706.82 57.91 719.43 55.93 731.42 52.79 742.77 47.97 753.51 41.23 763.67 32.7 773.32 22.82 782.52 12.26 791.38 1.83 800 -7.72 789.45 -25.02 781.48 -42.31 778.05 -59.61 779.99 -76.91 786.83 -94.21 796.89 -111.5 804.58 -135.82 786.24 -138.85 771.04 -135.16 755.84 -132.71 740.63 -132.15 725.43 -133.61 710.23 -136.73 695.03 -140.69 679.82 -144.47 664.62 -147.09 649.42 -147.88 634.22 -146.63 619.01 -143.67 603.81 -139.76 588.61 -135.9 573.41 -133.11 558.2 -132.1 543 -133.12 527.8 -135.92 512.6 -139.78 497.39 -143.69 482.19 -146.65 466.99 -147.88 451.79 -147.08 436.59 -144.45 421.38 -140.66 406.18 -136.71 390.98 -133.6 375.78 -132.15 360.57 -132.72 345.37 -135.17 330.17 -138.87 314.97 -142.86 299.76 -146.11 284.56 -147.78 269.36 -147.44 254.16 -145.17 238.95 -141.56 223.75 -137.55 208.55 -134.18 193.35 -132.3 178.14 -132.41 162.94 -134.49 147.74 -137.98 132.54 -142 117.34 -145.5 102.13 -147.57 86.93 -147.69 71.73 -145.82 56.53 -142.44 41.32 -138.43 26.12 -134.83 10.92 -132.56 -4.27 -132.21 -19.48 -133.87 -34.68 -137.12 -49.88 -141.11 -65.08 -144.81 -80.29 -147.27 -95.49 -147.84 -110.69 -146.39 -125.89 -143.29 -135.25 -127.6 -117 -115.23 -107.36 -109.6 -97.84 -103.29 -88.44 -96.16 -79.16 -88.16" fill="url(#uuunion-grad2)" filter="url(#uuunion-blur)"></path><path d="M780.03 387.64Q789.79 384.93 799.55 384 809.31 384.95 819.07 387.67 828.83 391.84 838.6 396.97 848.36 402.46 858.12 407.66 864.3 422.77 873.32 437.88 883.55 452.98 893.13 468.09 900.34 483.2 903.87 498.31 903.08 513.42 898.11 528.52 889.87 543.63 879.84 558.74 869.84 573.85 861.68 588.96 856.83 604.06 856.16 619.17 859.81 634.28 867.12 649.39 876.74 664.49 886.96 679.6 895.92 694.71 902 709.82 904.09 724.93 901.83 740.03 895.62 755.14 886.58 770.25 876.35 785.36 866.78 800.46 859.6 815.57 856.11 830.68 856.94 845.79 861.94 860.9 868.34 878.29 852.7 869.91 838.93 861.48 825.16 857.14 811.39 857.85 797.62 863.46 783.85 872.73 770.08 883.6 756.32 893.68 742.55 900.73 728.78 903.19 715.01 900.53 701.24 893.33 687.47 883.17 673.7 872.32 659.93 863.16 646.16 857.73 632.39 857.21 618.62 861.74 604.85 870.3 591.08 881.01 577.31 891.49 563.55 899.43 549.78 903.07 536.01 901.61 522.24 895.37 508.47 885.73 494.7 874.82 480.93 865.06 467.16 858.6 453.39 856.87 439.62 860.25 425.85 868 412.08 878.4 398.31 889.16 384.54 897.89 370.78 902.66 357.01 902.42 343.24 897.22 329.47 888.22 315.7 877.39 301.93 867.14 288.16 859.74 274.39 856.81 260.62 859.01 246.85 865.85 233.08 875.82 219.31 886.71 205.54 896.12 191.77 901.96 178.01 902.95 164.24 898.86 150.47 890.6 136.7 879.99 122.93 869.39 109.16 861.13 95.39 857.04 81.62 858.03 67.85 863.88 54.08 873.28 40.31 884.18 26.54 894.14 5.75 897.01 -1.51 882.88 -1.72 872.73 -1.88 862.58 -1.96 852.43 -1.96 842.28 -1.57 827.06 -0.76 822 11.65 813.65 24.19 801.69 36.85 787.2 49.65 771.69 62.57 756.87 75.6 744.28 88.73 735.07 101.93 729.74 115.16 728.09 128.4 729.25 141.6 731.85 154.72 734.26 167.73 734.91 180.58 732.55 193.24 726.5 205.7 716.76 217.93 704 229.92 689.43 241.67 674.58 253.19 661.03 264.51 650.09 275.64 642.59 286.65 638.73 297.56 638.03 308.44 639.46 319.34 641.6 330.33 642.91 341.46 642.02 352.81 637.98 364.42 630.42 376.33 619.61 388.6 606.4 401.25 592.1 414.29 578.18 427.72 566.03 441.54 556.71 455.72 550.75 470.21 548.06 484.96 547.96 499.91 549.31 514.97 550.71 530.07 550.76 545.13 548.33 560.03 542.75 574.71 533.93 589.07 522.38 603.05 509.08 616.56 495.34 629.57 482.53 642.02 471.83 653.92 464.03 665.24 459.38 676.02 457.55 686.29 457.72 696.11 458.68 705.55 459.12 714.7 457.82 723.67 453.91 732.56 446.99 741.49 437.2 750.59 425.24 759.97 412.16 774.89 393.43 780.03 387.64" fill="url(#uuunion-grad3)" filter="url(#uuunion-blur2)"></path></svg>